<?xml version="1.0" encoding="UTF-8" standalone="no"?>
<svg xmlns="http://www.w3.org/2000/svg" width="240" height="360" viewBox="0 0 240 360">
  <rect width="240" height="360" rx="40" ry="40" x="0" y="0" fill="#ffffff" stroke="#000000" stroke-width="2"/>
  <rect width="200" height="320" rx="20" ry="20" x="20" y="20" fill="#000000"/>
    <g transform="rotate(-22 120 180)">
      <path d="M120,180 L120,76 A64,104 0 0 0 56,180 Z" fill="#ff5555"/>
      <path d="M120,180 L120,76 A64,104 0 0 1 184,180 Z" fill="#5555ff"/>
      <path d="M120,180 L120,284 A64,104 0 0 0 184,180 Z" fill="#55aa55"/>
      <path d="M120,180 L120,284 A64,104 0 0 1 56,180 Z" fill="#ffaa00"/>
      <ellipse cx="120" cy="180" rx="64" ry="104" fill="none" stroke="#ffffff" stroke-width="6"/>
      <ellipse cx="120" cy="180" rx="50" ry="90" fill="none" stroke="#ffffff" stroke-width="3"/>
    </g>
</svg>
